<svg xmlns="http://www.w3.org/2000/svg" viewBox="0 0 1200 900" width="1200" height="900" role="img">
<defs>
<linearGradient id="bg1372860251" x1="0" y1="0" x2="1" y2="1">
<stop offset="0" stop-color="#123845"/><stop offset="1" stop-color="#1d6076"/>
</linearGradient>
<radialGradient id="glow1372860251">
<stop offset="0" stop-color="#a3e4f2" stop-opacity=".22"/><stop offset="1" stop-color="#a3e4f2" stop-opacity="0"/>
</radialGradient>
</defs>
<rect width="1200" height="900" fill="url(#bg1372860251)"/>
<g opacity=".16" stroke="#5cbcd2" stroke-width="1">
<line x1="0" y1="0" x2="0" y2="900"/>
<line x1="40" y1="0" x2="40" y2="900"/>
<line x1="80" y1="0" x2="80" y2="900"/>
<line x1="120" y1="0" x2="120" y2="900"/>
<line x1="160" y1="0" x2="160" y2="900"/>
<line x1="200" y1="0" x2="200" y2="900"/>
<line x1="240" y1="0" x2="240" y2="900"/>
<line x1="280" y1="0" x2="280" y2="900"/>
<line x1="320" y1="0" x2="320" y2="900"/>
<line x1="360" y1="0" x2="360" y2="900"/>
<line x1="400" y1="0" x2="400" y2="900"/>
<line x1="440" y1="0" x2="440" y2="900"/>
<line x1="480" y1="0" x2="480" y2="900"/>
<line x1="520" y1="0" x2="520" y2="900"/>
<line x1="560" y1="0" x2="560" y2="900"/>
<line x1="600" y1="0" x2="600" y2="900"/>
<line x1="640" y1="0" x2="640" y2="900"/>
<line x1="680" y1="0" x2="680" y2="900"/>
<line x1="720" y1="0" x2="720" y2="900"/>
<line x1="760" y1="0" x2="760" y2="900"/>
<line x1="800" y1="0" x2="800" y2="900"/>
<line x1="840" y1="0" x2="840" y2="900"/>
<line x1="880" y1="0" x2="880" y2="900"/>
<line x1="920" y1="0" x2="920" y2="900"/>
<line x1="960" y1="0" x2="960" y2="900"/>
<line x1="1000" y1="0" x2="1000" y2="900"/>
<line x1="1040" y1="0" x2="1040" y2="900"/>
<line x1="1080" y1="0" x2="1080" y2="900"/>
<line x1="1120" y1="0" x2="1120" y2="900"/>
<line x1="1160" y1="0" x2="1160" y2="900"/>
<line x1="1200" y1="0" x2="1200" y2="900"/>
<line x1="0" y1="0" x2="1200" y2="0"/>
<line x1="0" y1="40" x2="1200" y2="40"/>
<line x1="0" y1="80" x2="1200" y2="80"/>
<line x1="0" y1="120" x2="1200" y2="120"/>
<line x1="0" y1="160" x2="1200" y2="160"/>
<line x1="0" y1="200" x2="1200" y2="200"/>
<line x1="0" y1="240" x2="1200" y2="240"/>
<line x1="0" y1="280" x2="1200" y2="280"/>
<line x1="0" y1="320" x2="1200" y2="320"/>
<line x1="0" y1="360" x2="1200" y2="360"/>
<line x1="0" y1="400" x2="1200" y2="400"/>
<line x1="0" y1="440" x2="1200" y2="440"/>
<line x1="0" y1="480" x2="1200" y2="480"/>
<line x1="0" y1="520" x2="1200" y2="520"/>
<line x1="0" y1="560" x2="1200" y2="560"/>
<line x1="0" y1="600" x2="1200" y2="600"/>
<line x1="0" y1="640" x2="1200" y2="640"/>
<line x1="0" y1="680" x2="1200" y2="680"/>
<line x1="0" y1="720" x2="1200" y2="720"/>
<line x1="0" y1="760" x2="1200" y2="760"/>
<line x1="0" y1="800" x2="1200" y2="800"/>
<line x1="0" y1="840" x2="1200" y2="840"/>
<line x1="0" y1="880" x2="1200" y2="880"/>
</g>
<path d="M664 422 L664 304 L690 278 L870 278 L896 252 L769 252 L743 226 L596 226 L570 200 L570 3 L596 -23 L412 -23 L386 -49 L386 150" stroke="#5cbcd2" stroke-width="1.25" fill="none" opacity="0.71" stroke-linecap="round" stroke-linejoin="round"/><circle cx="386" cy="150" r="2.1" fill="none" stroke="#5cbcd2" stroke-width="1.4" opacity="0.64"/><path d="M275 435 L135 435 L109 461 L198 461 L224 487 L160 487 L134 461 L134 652 L108 678 L205 678 L231 652 L317 652" stroke="#5cbcd2" stroke-width="3.5" fill="none" opacity="0.46" stroke-linecap="round" stroke-linejoin="round"/><circle cx="317" cy="652" r="6.0" fill="none" stroke="#5cbcd2" stroke-width="1.4" opacity="0.42"/><path d="M109 521 L109 617 L83 643 L337 643 L363 669 L363 826" stroke="#5cbcd2" stroke-width="3.5" fill="none" opacity="0.43" stroke-linecap="round" stroke-linejoin="round"/><circle cx="363" cy="826" r="6.0" fill="none" stroke="#5cbcd2" stroke-width="1.4" opacity="0.39"/><path d="M647 878 L824 878 L850 904 L1036 904 L1062 878 L1160 878 L1186 904 L1186 1137 L1160 1163 L919 1163 L893 1137 L893 1205" stroke="#5cbcd2" stroke-width="2" fill="none" opacity="0.32" stroke-linecap="round" stroke-linejoin="round"/><circle cx="893" cy="1205" r="3.4" fill="none" stroke="#5cbcd2" stroke-width="1.4" opacity="0.29"/><path d="M719 489 L566 489 L540 463 L426 463 L400 489 L163 489 L137 463 L137 288 L163 262 L163 429" stroke="#5cbcd2" stroke-width="3.5" fill="none" opacity="0.50" stroke-linecap="round" stroke-linejoin="round"/><circle cx="163" cy="429" r="6.0" fill="none" stroke="#5cbcd2" stroke-width="1.4" opacity="0.45"/><path d="M1017 648 L1223 648 L1249 674 L1482 674 L1508 648 L1377 648 L1351 674 L1283 674 L1257 700 L1093 700 L1067 674 L1185 674 L1211 700 L1441 700" stroke="#5cbcd2" stroke-width="2" fill="none" opacity="0.61" stroke-linecap="round" stroke-linejoin="round"/><circle cx="1441" cy="700" r="3.4" fill="none" stroke="#5cbcd2" stroke-width="1.4" opacity="0.55"/><path d="M614 305 L488 305 L462 331 L462 79 L488 53 L269 53" stroke="#5cbcd2" stroke-width="2" fill="none" opacity="0.42" stroke-linecap="round" stroke-linejoin="round"/><circle cx="269" cy="53" r="3.4" fill="none" stroke="#5cbcd2" stroke-width="1.4" opacity="0.38"/><path d="M841 746 L841 888 L815 914 L815 701 L841 675 L841 800" stroke="#5cbcd2" stroke-width="1.25" fill="none" opacity="0.61" stroke-linecap="round" stroke-linejoin="round"/><circle cx="841" cy="800" r="2.1" fill="none" stroke="#5cbcd2" stroke-width="1.4" opacity="0.55"/><path d="M196 313 L88 313 L62 287 L-149 287 L-175 313 L-108 313 L-82 339 L-272 339 L-298 313 L-298 501 L-324 527 L-324 293" stroke="#5cbcd2" stroke-width="2" fill="none" opacity="0.37" stroke-linecap="round" stroke-linejoin="round"/><circle cx="-324" cy="293" r="3.4" fill="none" stroke="#5cbcd2" stroke-width="1.4" opacity="0.33"/><path d="M357 65 L225 65 L199 91 L96 91 L70 65 L70 -124 L96 -150 L-76 -150 L-102 -124 L148 -124 L174 -150 L72 -150" stroke="#5cbcd2" stroke-width="3.5" fill="none" opacity="0.27" stroke-linecap="round" stroke-linejoin="round"/><circle cx="72" cy="-150" r="6.0" fill="none" stroke="#5cbcd2" stroke-width="1.4" opacity="0.24"/><path d="M230 645 L230 406 L256 380 L144 380 L118 354 L118 553" stroke="#5cbcd2" stroke-width="1.25" fill="none" opacity="0.28" stroke-linecap="round" stroke-linejoin="round"/><circle cx="118" cy="553" r="2.1" fill="none" stroke="#5cbcd2" stroke-width="1.4" opacity="0.25"/><path d="M286 159 L154 159 L128 185 L128 -71 L102 -97 L361 -97 L387 -71 L387 -138" stroke="#5cbcd2" stroke-width="2" fill="none" opacity="0.65" stroke-linecap="round" stroke-linejoin="round"/><circle cx="387" cy="-138" r="3.4" fill="none" stroke="#5cbcd2" stroke-width="1.4" opacity="0.58"/><path d="M1022 383 L1227 383 L1253 409 L1121 409 L1095 435 L902 435 L876 461 L1012 461" stroke="#5cbcd2" stroke-width="1.25" fill="none" opacity="0.72" stroke-linecap="round" stroke-linejoin="round"/><circle cx="1012" cy="461" r="2.1" fill="none" stroke="#5cbcd2" stroke-width="1.4" opacity="0.65"/><path d="M205 144 L205 302 L179 328 L295 328 L321 354 L72 354 L46 380 L46 586 L20 612 L-166 612" stroke="#5cbcd2" stroke-width="3.5" fill="none" opacity="0.57" stroke-linecap="round" stroke-linejoin="round"/><circle cx="-166" cy="612" r="6.0" fill="none" stroke="#5cbcd2" stroke-width="1.4" opacity="0.52"/><path d="M183 308 L183 225 L209 199 L58 199 L32 173 L135 173 L161 147 L16 147 L-10 173 L-136 173 L-162 147 L-162 -98" stroke="#5cbcd2" stroke-width="2" fill="none" opacity="0.49" stroke-linecap="round" stroke-linejoin="round"/><circle cx="-162" cy="-98" r="3.4" fill="none" stroke="#5cbcd2" stroke-width="1.4" opacity="0.44"/><path d="M900 750 L818 750 L792 724 L718 724 L692 750 L853 750 L879 776 L879 677 L853 651 L783 651" stroke="#5cbcd2" stroke-width="3.5" fill="none" opacity="0.41" stroke-linecap="round" stroke-linejoin="round"/><circle cx="783" cy="651" r="6.0" fill="none" stroke="#5cbcd2" stroke-width="1.4" opacity="0.37"/><path d="M726 855 L475 855 L449 829 L449 1067 L475 1093 L475 945 L449 919 L200 919 L174 893 L261 893 L287 919 L488 919" stroke="#5cbcd2" stroke-width="1.25" fill="none" opacity="0.56" stroke-linecap="round" stroke-linejoin="round"/><circle cx="488" cy="919" r="2.1" fill="none" stroke="#5cbcd2" stroke-width="1.4" opacity="0.51"/><path d="M1143 483 L1387 483 L1413 509 L1413 333 L1387 307 L1387 162 L1361 136 L1496 136 L1522 162 L1442 162" stroke="#5cbcd2" stroke-width="2" fill="none" opacity="0.75" stroke-linecap="round" stroke-linejoin="round"/><circle cx="1442" cy="162" r="3.4" fill="none" stroke="#5cbcd2" stroke-width="1.4" opacity="0.67"/><path d="M231 737 L231 940 L257 966 L257 1062 L231 1088 L231 1001 L257 975 L257 1116 L283 1142 L447 1142 L473 1116 L473 926 L499 900 L261 900" stroke="#5cbcd2" stroke-width="1.25" fill="none" opacity="0.50" stroke-linecap="round" stroke-linejoin="round"/><circle cx="261" cy="900" r="2.1" fill="none" stroke="#5cbcd2" stroke-width="1.4" opacity="0.45"/><path d="M1067 134 L1247 134 L1273 108 L1273 -22 L1247 -48 L1247 173 L1221 199 L1221 55 L1247 29 L1247 110" stroke="#5cbcd2" stroke-width="3.5" fill="none" opacity="0.30" stroke-linecap="round" stroke-linejoin="round"/><circle cx="1247" cy="110" r="6.0" fill="none" stroke="#5cbcd2" stroke-width="1.4" opacity="0.27"/><path d="M810 325 L745 325 L719 351 L719 137 L693 111 L693 224 L719 250 L783 250 L809 224 L601 224 L575 198 L513 198" stroke="#5cbcd2" stroke-width="1.25" fill="none" opacity="0.59" stroke-linecap="round" stroke-linejoin="round"/><circle cx="513" cy="198" r="2.1" fill="none" stroke="#5cbcd2" stroke-width="1.4" opacity="0.53"/><path d="M808 623 L808 693 L782 719 L605 719 L579 693 L649 693 L675 667 L884 667 L910 693 L910 559" stroke="#5cbcd2" stroke-width="2" fill="none" opacity="0.45" stroke-linecap="round" stroke-linejoin="round"/><circle cx="910" cy="559" r="3.4" fill="none" stroke="#5cbcd2" stroke-width="1.4" opacity="0.41"/><path d="M761 42 L680 42 L654 16 L654 113 L628 139 L628 -97 L602 -123 L542 -123 L516 -149 L516 33 L490 59 L490 -7 L464 -33 L464 -165" stroke="#5cbcd2" stroke-width="1.25" fill="none" opacity="0.42" stroke-linecap="round" stroke-linejoin="round"/><circle cx="464" cy="-165" r="2.1" fill="none" stroke="#5cbcd2" stroke-width="1.4" opacity="0.38"/><path d="M291 236 L291 445 L265 471 L265 657 L291 683 L291 917 L317 943 L564 943 L590 917 L590 1083" stroke="#5cbcd2" stroke-width="1.25" fill="none" opacity="0.62" stroke-linecap="round" stroke-linejoin="round"/><circle cx="590" cy="1083" r="2.1" fill="none" stroke="#5cbcd2" stroke-width="1.4" opacity="0.55"/><path d="M439 610 L624 610 L650 636 L650 875 L624 901 L624 827" stroke="#5cbcd2" stroke-width="2" fill="none" opacity="0.44" stroke-linecap="round" stroke-linejoin="round"/><circle cx="624" cy="827" r="3.4" fill="none" stroke="#5cbcd2" stroke-width="1.4" opacity="0.40"/><path d="M558 408 L558 335 L532 309 L532 430 L558 456 L558 313 L532 287 L768 287 L794 261 L982 261 L1008 287 L1098 287" stroke="#5cbcd2" stroke-width="3.5" fill="none" opacity="0.61" stroke-linecap="round" stroke-linejoin="round"/><circle cx="1098" cy="287" r="6.0" fill="none" stroke="#5cbcd2" stroke-width="1.4" opacity="0.55"/><path d="M237 161 L237 287 L263 313 L28 313 L2 287 L-89 287 L-115 261 L144 261 L170 235 L170 334 L144 360 L144 558" stroke="#5cbcd2" stroke-width="2" fill="none" opacity="0.42" stroke-linecap="round" stroke-linejoin="round"/><circle cx="144" cy="558" r="3.4" fill="none" stroke="#5cbcd2" stroke-width="1.4" opacity="0.38"/><path d="M46 111 L46 344 L72 370 L-151 370 L-177 344 L-177 157 L-151 131 L-151 -37" stroke="#5cbcd2" stroke-width="3.5" fill="none" opacity="0.29" stroke-linecap="round" stroke-linejoin="round"/><circle cx="-151" cy="-37" r="6.0" fill="none" stroke="#5cbcd2" stroke-width="1.4" opacity="0.26"/>
<g>
      <rect x="196" y="75" width="96" height="95" rx="6" fill="#0b2831" opacity=".92"/>
      <rect x="196" y="75" width="96" height="95" rx="6" fill="none" stroke="#5cbcd2" stroke-width="1.5" opacity=".55"/>
      <circle cx="210" cy="89" r="4" fill="#5cbcd2" opacity=".7"/>
<rect x="203.0" y="68" width="6" height="7" rx="1.5" fill="#cfa733" opacity=".8"/>
<rect x="203.0" y="170" width="6" height="7" rx="1.5" fill="#cfa733" opacity=".8"/>
<rect x="222.0" y="68" width="6" height="7" rx="1.5" fill="#cfa733" opacity=".8"/>
<rect x="222.0" y="170" width="6" height="7" rx="1.5" fill="#cfa733" opacity=".8"/>
<rect x="241.0" y="68" width="6" height="7" rx="1.5" fill="#cfa733" opacity=".8"/>
<rect x="241.0" y="170" width="6" height="7" rx="1.5" fill="#cfa733" opacity=".8"/>
<rect x="260.0" y="68" width="6" height="7" rx="1.5" fill="#cfa733" opacity=".8"/>
<rect x="260.0" y="170" width="6" height="7" rx="1.5" fill="#cfa733" opacity=".8"/>
<rect x="279.0" y="68" width="6" height="7" rx="1.5" fill="#cfa733" opacity=".8"/>
<rect x="279.0" y="170" width="6" height="7" rx="1.5" fill="#cfa733" opacity=".8"/>
</g>
<g>
      <rect x="310" y="86" width="111" height="78" rx="6" fill="#0b2831" opacity=".92"/>
      <rect x="310" y="86" width="111" height="78" rx="6" fill="none" stroke="#5cbcd2" stroke-width="1.5" opacity=".55"/>
      <circle cx="324" cy="100" r="4" fill="#5cbcd2" opacity=".7"/>
<rect x="317.0" y="79" width="6" height="7" rx="1.5" fill="#cfa733" opacity=".8"/>
<rect x="317.0" y="164" width="6" height="7" rx="1.5" fill="#cfa733" opacity=".8"/>
<rect x="335.2" y="79" width="6" height="7" rx="1.5" fill="#cfa733" opacity=".8"/>
<rect x="335.2" y="164" width="6" height="7" rx="1.5" fill="#cfa733" opacity=".8"/>
<rect x="353.4" y="79" width="6" height="7" rx="1.5" fill="#cfa733" opacity=".8"/>
<rect x="353.4" y="164" width="6" height="7" rx="1.5" fill="#cfa733" opacity=".8"/>
<rect x="371.6" y="79" width="6" height="7" rx="1.5" fill="#cfa733" opacity=".8"/>
<rect x="371.6" y="164" width="6" height="7" rx="1.5" fill="#cfa733" opacity=".8"/>
<rect x="389.8" y="79" width="6" height="7" rx="1.5" fill="#cfa733" opacity=".8"/>
<rect x="389.8" y="164" width="6" height="7" rx="1.5" fill="#cfa733" opacity=".8"/>
<rect x="408.0" y="79" width="6" height="7" rx="1.5" fill="#cfa733" opacity=".8"/>
<rect x="408.0" y="164" width="6" height="7" rx="1.5" fill="#cfa733" opacity=".8"/>
</g>
<g>
      <rect x="742" y="91" width="163" height="75" rx="6" fill="#0b2831" opacity=".92"/>
      <rect x="742" y="91" width="163" height="75" rx="6" fill="none" stroke="#5cbcd2" stroke-width="1.5" opacity=".55"/>
      <circle cx="756" cy="105" r="4" fill="#5cbcd2" opacity=".7"/>
<rect x="749.0" y="84" width="6" height="7" rx="1.5" fill="#cfa733" opacity=".8"/>
<rect x="749.0" y="166" width="6" height="7" rx="1.5" fill="#cfa733" opacity=".8"/>
<rect x="766.9" y="84" width="6" height="7" rx="1.5" fill="#cfa733" opacity=".8"/>
<rect x="766.9" y="166" width="6" height="7" rx="1.5" fill="#cfa733" opacity=".8"/>
<rect x="784.8" y="84" width="6" height="7" rx="1.5" fill="#cfa733" opacity=".8"/>
<rect x="784.8" y="166" width="6" height="7" rx="1.5" fill="#cfa733" opacity=".8"/>
<rect x="802.6" y="84" width="6" height="7" rx="1.5" fill="#cfa733" opacity=".8"/>
<rect x="802.6" y="166" width="6" height="7" rx="1.5" fill="#cfa733" opacity=".8"/>
<rect x="820.5" y="84" width="6" height="7" rx="1.5" fill="#cfa733" opacity=".8"/>
<rect x="820.5" y="166" width="6" height="7" rx="1.5" fill="#cfa733" opacity=".8"/>
<rect x="838.4" y="84" width="6" height="7" rx="1.5" fill="#cfa733" opacity=".8"/>
<rect x="838.4" y="166" width="6" height="7" rx="1.5" fill="#cfa733" opacity=".8"/>
<rect x="856.3" y="84" width="6" height="7" rx="1.5" fill="#cfa733" opacity=".8"/>
<rect x="856.3" y="166" width="6" height="7" rx="1.5" fill="#cfa733" opacity=".8"/>
<rect x="874.1" y="84" width="6" height="7" rx="1.5" fill="#cfa733" opacity=".8"/>
<rect x="874.1" y="166" width="6" height="7" rx="1.5" fill="#cfa733" opacity=".8"/>
<rect x="892.0" y="84" width="6" height="7" rx="1.5" fill="#cfa733" opacity=".8"/>
<rect x="892.0" y="166" width="6" height="7" rx="1.5" fill="#cfa733" opacity=".8"/>
</g>
<g>
      <rect x="57" y="572" width="216" height="170" rx="6" fill="#0b2831" opacity=".92"/>
      <rect x="57" y="572" width="216" height="170" rx="6" fill="none" stroke="#5cbcd2" stroke-width="1.5" opacity=".55"/>
      <circle cx="71" cy="586" r="4" fill="#5cbcd2" opacity=".7"/>
<rect x="64.0" y="565" width="6" height="7" rx="1.5" fill="#cfa733" opacity=".8"/>
<rect x="64.0" y="742" width="6" height="7" rx="1.5" fill="#cfa733" opacity=".8"/>
<rect x="81.8" y="565" width="6" height="7" rx="1.5" fill="#cfa733" opacity=".8"/>
<rect x="81.8" y="742" width="6" height="7" rx="1.5" fill="#cfa733" opacity=".8"/>
<rect x="99.6" y="565" width="6" height="7" rx="1.5" fill="#cfa733" opacity=".8"/>
<rect x="99.6" y="742" width="6" height="7" rx="1.5" fill="#cfa733" opacity=".8"/>
<rect x="117.5" y="565" width="6" height="7" rx="1.5" fill="#cfa733" opacity=".8"/>
<rect x="117.5" y="742" width="6" height="7" rx="1.5" fill="#cfa733" opacity=".8"/>
<rect x="135.3" y="565" width="6" height="7" rx="1.5" fill="#cfa733" opacity=".8"/>
<rect x="135.3" y="742" width="6" height="7" rx="1.5" fill="#cfa733" opacity=".8"/>
<rect x="153.1" y="565" width="6" height="7" rx="1.5" fill="#cfa733" opacity=".8"/>
<rect x="153.1" y="742" width="6" height="7" rx="1.5" fill="#cfa733" opacity=".8"/>
<rect x="170.9" y="565" width="6" height="7" rx="1.5" fill="#cfa733" opacity=".8"/>
<rect x="170.9" y="742" width="6" height="7" rx="1.5" fill="#cfa733" opacity=".8"/>
<rect x="188.7" y="565" width="6" height="7" rx="1.5" fill="#cfa733" opacity=".8"/>
<rect x="188.7" y="742" width="6" height="7" rx="1.5" fill="#cfa733" opacity=".8"/>
<rect x="206.5" y="565" width="6" height="7" rx="1.5" fill="#cfa733" opacity=".8"/>
<rect x="206.5" y="742" width="6" height="7" rx="1.5" fill="#cfa733" opacity=".8"/>
<rect x="224.4" y="565" width="6" height="7" rx="1.5" fill="#cfa733" opacity=".8"/>
<rect x="224.4" y="742" width="6" height="7" rx="1.5" fill="#cfa733" opacity=".8"/>
<rect x="242.2" y="565" width="6" height="7" rx="1.5" fill="#cfa733" opacity=".8"/>
<rect x="242.2" y="742" width="6" height="7" rx="1.5" fill="#cfa733" opacity=".8"/>
<rect x="260.0" y="565" width="6" height="7" rx="1.5" fill="#cfa733" opacity=".8"/>
<rect x="260.0" y="742" width="6" height="7" rx="1.5" fill="#cfa733" opacity=".8"/>
</g>
<rect x="1033" y="529" width="16" height="8" rx="2" fill="#cfa733" opacity="0.41"/>
<rect x="949" y="183" width="8" height="16" rx="2" fill="#cfa733" opacity="0.66"/>
<rect x="499" y="127" width="16" height="8" rx="2" fill="#cfa733" opacity="0.50"/>
<rect x="395" y="512" width="16" height="8" rx="2" fill="#cfa733" opacity="0.46"/>
<rect x="289" y="63" width="16" height="8" rx="2" fill="#cfa733" opacity="0.46"/>
<rect x="767" y="734" width="16" height="8" rx="2" fill="#cfa733" opacity="0.68"/>
<rect x="120" y="59" width="16" height="8" rx="2" fill="#cfa733" opacity="0.63"/>
<rect x="136" y="361" width="8" height="16" rx="2" fill="#cfa733" opacity="0.58"/>
<rect x="733" y="179" width="8" height="16" rx="2" fill="#cfa733" opacity="0.72"/>
<rect x="31" y="516" width="8" height="16" rx="2" fill="#cfa733" opacity="0.38"/>
<rect x="1181" y="803" width="16" height="8" rx="2" fill="#cfa733" opacity="0.46"/>
<rect x="440" y="148" width="8" height="16" rx="2" fill="#cfa733" opacity="0.58"/>
<rect x="461" y="840" width="16" height="8" rx="2" fill="#cfa733" opacity="0.55"/>
<rect x="881" y="323" width="8" height="16" rx="2" fill="#cfa733" opacity="0.36"/>
<rect x="1077" y="485" width="8" height="16" rx="2" fill="#cfa733" opacity="0.67"/>
<rect x="647" y="685" width="8" height="16" rx="2" fill="#cfa733" opacity="0.57"/>
<rect x="477" y="657" width="8" height="16" rx="2" fill="#cfa733" opacity="0.47"/>
<rect x="130" y="205" width="16" height="8" rx="2" fill="#cfa733" opacity="0.48"/>
<rect x="843" y="454" width="8" height="16" rx="2" fill="#cfa733" opacity="0.69"/>
<rect x="1064" y="444" width="16" height="8" rx="2" fill="#cfa733" opacity="0.44"/>
<rect x="897" y="516" width="8" height="16" rx="2" fill="#cfa733" opacity="0.74"/>
<rect x="1084" y="95" width="8" height="16" rx="2" fill="#cfa733" opacity="0.64"/>
<rect x="480" y="410" width="8" height="16" rx="2" fill="#cfa733" opacity="0.56"/>
<rect x="493" y="377" width="8" height="16" rx="2" fill="#cfa733" opacity="0.63"/>
<rect x="673" y="174" width="16" height="8" rx="2" fill="#cfa733" opacity="0.72"/>
<rect x="904" y="459" width="16" height="8" rx="2" fill="#cfa733" opacity="0.58"/>
<rect x="896" y="524" width="16" height="8" rx="2" fill="#cfa733" opacity="0.51"/>
<rect x="277" y="287" width="8" height="16" rx="2" fill="#cfa733" opacity="0.38"/>
<circle cx="72" cy="290" r="247" fill="url(#glow1372860251)" opacity=".5"/>
<circle cx="150" cy="455" r="263" fill="url(#glow1372860251)" opacity=".5"/>
<circle cx="612" cy="792" r="254" fill="url(#glow1372860251)" opacity=".5"/>
</svg>