<svg xmlns="http://www.w3.org/2000/svg" viewBox="0 0 1200 900" width="1200" height="900" role="img">
<defs>
<linearGradient id="bg866232353" x1="0" y1="0" x2="1" y2="1">
<stop offset="0" stop-color="#0f303b"/><stop offset="1" stop-color="#1a5566"/>
</linearGradient>
<radialGradient id="glow866232353">
<stop offset="0" stop-color="#93dcec" stop-opacity=".22"/><stop offset="1" stop-color="#93dcec" stop-opacity="0"/>
</radialGradient>
</defs>
<rect width="1200" height="900" fill="url(#bg866232353)"/>
<g opacity=".16" stroke="#4fb0c6" stroke-width="1">
<line x1="0" y1="0" x2="0" y2="900"/>
<line x1="40" y1="0" x2="40" y2="900"/>
<line x1="80" y1="0" x2="80" y2="900"/>
<line x1="120" y1="0" x2="120" y2="900"/>
<line x1="160" y1="0" x2="160" y2="900"/>
<line x1="200" y1="0" x2="200" y2="900"/>
<line x1="240" y1="0" x2="240" y2="900"/>
<line x1="280" y1="0" x2="280" y2="900"/>
<line x1="320" y1="0" x2="320" y2="900"/>
<line x1="360" y1="0" x2="360" y2="900"/>
<line x1="400" y1="0" x2="400" y2="900"/>
<line x1="440" y1="0" x2="440" y2="900"/>
<line x1="480" y1="0" x2="480" y2="900"/>
<line x1="520" y1="0" x2="520" y2="900"/>
<line x1="560" y1="0" x2="560" y2="900"/>
<line x1="600" y1="0" x2="600" y2="900"/>
<line x1="640" y1="0" x2="640" y2="900"/>
<line x1="680" y1="0" x2="680" y2="900"/>
<line x1="720" y1="0" x2="720" y2="900"/>
<line x1="760" y1="0" x2="760" y2="900"/>
<line x1="800" y1="0" x2="800" y2="900"/>
<line x1="840" y1="0" x2="840" y2="900"/>
<line x1="880" y1="0" x2="880" y2="900"/>
<line x1="920" y1="0" x2="920" y2="900"/>
<line x1="960" y1="0" x2="960" y2="900"/>
<line x1="1000" y1="0" x2="1000" y2="900"/>
<line x1="1040" y1="0" x2="1040" y2="900"/>
<line x1="1080" y1="0" x2="1080" y2="900"/>
<line x1="1120" y1="0" x2="1120" y2="900"/>
<line x1="1160" y1="0" x2="1160" y2="900"/>
<line x1="1200" y1="0" x2="1200" y2="900"/>
<line x1="0" y1="0" x2="1200" y2="0"/>
<line x1="0" y1="40" x2="1200" y2="40"/>
<line x1="0" y1="80" x2="1200" y2="80"/>
<line x1="0" y1="120" x2="1200" y2="120"/>
<line x1="0" y1="160" x2="1200" y2="160"/>
<line x1="0" y1="200" x2="1200" y2="200"/>
<line x1="0" y1="240" x2="1200" y2="240"/>
<line x1="0" y1="280" x2="1200" y2="280"/>
<line x1="0" y1="320" x2="1200" y2="320"/>
<line x1="0" y1="360" x2="1200" y2="360"/>
<line x1="0" y1="400" x2="1200" y2="400"/>
<line x1="0" y1="440" x2="1200" y2="440"/>
<line x1="0" y1="480" x2="1200" y2="480"/>
<line x1="0" y1="520" x2="1200" y2="520"/>
<line x1="0" y1="560" x2="1200" y2="560"/>
<line x1="0" y1="600" x2="1200" y2="600"/>
<line x1="0" y1="640" x2="1200" y2="640"/>
<line x1="0" y1="680" x2="1200" y2="680"/>
<line x1="0" y1="720" x2="1200" y2="720"/>
<line x1="0" y1="760" x2="1200" y2="760"/>
<line x1="0" y1="800" x2="1200" y2="800"/>
<line x1="0" y1="840" x2="1200" y2="840"/>
<line x1="0" y1="880" x2="1200" y2="880"/>
</g>
<path d="M230 554 L230 406 L256 380 L449 380 L475 354 L475 542 L501 568 L501 726 L527 752 L527 820" stroke="#4fb0c6" stroke-width="2" fill="none" opacity="0.49" stroke-linecap="round" stroke-linejoin="round"/><circle cx="527" cy="820" r="3.4" fill="none" stroke="#4fb0c6" stroke-width="1.4" opacity="0.44"/><path d="M1178 465 L1275 465 L1301 491 L1392 491 L1418 517 L1418 737 L1444 763 L1297 763 L1271 737 L1498 737 L1524 763 L1285 763" stroke="#4fb0c6" stroke-width="1.25" fill="none" opacity="0.55" stroke-linecap="round" stroke-linejoin="round"/><circle cx="1285" cy="763" r="2.1" fill="none" stroke="#4fb0c6" stroke-width="1.4" opacity="0.50"/><path d="M788 869 L788 931 L762 957 L762 1027 L788 1053 L788 967 L814 941 L814 766 L788 740 L788 482 L814 456 L712 456" stroke="#4fb0c6" stroke-width="3.5" fill="none" opacity="0.48" stroke-linecap="round" stroke-linejoin="round"/><circle cx="712" cy="456" r="6.0" fill="none" stroke="#4fb0c6" stroke-width="1.4" opacity="0.43"/><path d="M407 367 L407 190 L433 164 L341 164 L315 190 L224 190 L198 216 L331 216" stroke="#4fb0c6" stroke-width="1.25" fill="none" opacity="0.51" stroke-linecap="round" stroke-linejoin="round"/><circle cx="331" cy="216" r="2.1" fill="none" stroke="#4fb0c6" stroke-width="1.4" opacity="0.46"/><path d="M205 439 L124 439 L98 465 L98 208 L124 182 L124 317 L150 343 L241 343" stroke="#4fb0c6" stroke-width="1.25" fill="none" opacity="0.47" stroke-linecap="round" stroke-linejoin="round"/><circle cx="241" cy="343" r="2.1" fill="none" stroke="#4fb0c6" stroke-width="1.4" opacity="0.43"/><path d="M741 206 L917 206 L943 180 L943 397 L969 423 L969 543" stroke="#4fb0c6" stroke-width="3.5" fill="none" opacity="0.51" stroke-linecap="round" stroke-linejoin="round"/><circle cx="969" cy="543" r="6.0" fill="none" stroke="#4fb0c6" stroke-width="1.4" opacity="0.46"/><path d="M993 144 L993 6 L1019 -20 L1019 169 L993 195 L993 -20 L1019 -46 L791 -46" stroke="#4fb0c6" stroke-width="2" fill="none" opacity="0.37" stroke-linecap="round" stroke-linejoin="round"/><circle cx="791" cy="-46" r="3.4" fill="none" stroke="#4fb0c6" stroke-width="1.4" opacity="0.33"/><path d="M373 730 L373 562 L399 536 L399 630 L373 656 L373 833 L399 859 L288 859" stroke="#4fb0c6" stroke-width="1.25" fill="none" opacity="0.32" stroke-linecap="round" stroke-linejoin="round"/><circle cx="288" cy="859" r="2.1" fill="none" stroke="#4fb0c6" stroke-width="1.4" opacity="0.29"/><path d="M1069 784 L1274 784 L1300 758 L1474 758 L1500 784 L1500 530 L1474 504 L1394 504 L1368 530 L1469 530 L1495 504 L1330 504 L1304 478 L1213 478" stroke="#4fb0c6" stroke-width="2" fill="none" opacity="0.27" stroke-linecap="round" stroke-linejoin="round"/><circle cx="1213" cy="478" r="3.4" fill="none" stroke="#4fb0c6" stroke-width="1.4" opacity="0.25"/><path d="M27 329 L27 111 L53 85 L53 -69 L79 -95 L-120 -95 L-146 -69 L-146 -327 L-172 -353 L-250 -353" stroke="#4fb0c6" stroke-width="3.5" fill="none" opacity="0.47" stroke-linecap="round" stroke-linejoin="round"/><circle cx="-250" cy="-353" r="6.0" fill="none" stroke="#4fb0c6" stroke-width="1.4" opacity="0.42"/><path d="M169 885 L281 885 L307 911 L307 1045 L281 1071 L281 923 L255 897 L138 897" stroke="#4fb0c6" stroke-width="2" fill="none" opacity="0.41" stroke-linecap="round" stroke-linejoin="round"/><circle cx="138" cy="897" r="3.4" fill="none" stroke="#4fb0c6" stroke-width="1.4" opacity="0.37"/><path d="M769 552 L695 552 L669 578 L533 578 L507 604 L269 604 L243 578 L364 578 L390 552 L390 432" stroke="#4fb0c6" stroke-width="2" fill="none" opacity="0.74" stroke-linecap="round" stroke-linejoin="round"/><circle cx="390" cy="432" r="3.4" fill="none" stroke="#4fb0c6" stroke-width="1.4" opacity="0.67"/><path d="M555 608 L463 608 L437 634 L437 707 L463 733 L574 733 L600 759 L741 759 L767 785 L767 569" stroke="#4fb0c6" stroke-width="1.25" fill="none" opacity="0.72" stroke-linecap="round" stroke-linejoin="round"/><circle cx="767" cy="569" r="2.1" fill="none" stroke="#4fb0c6" stroke-width="1.4" opacity="0.65"/><path d="M741 63 L741 321 L767 347 L551 347 L525 321 L525 467 L499 493 L759 493 L785 519 L673 519 L647 493 L647 374" stroke="#4fb0c6" stroke-width="2" fill="none" opacity="0.63" stroke-linecap="round" stroke-linejoin="round"/><circle cx="647" cy="374" r="3.4" fill="none" stroke="#4fb0c6" stroke-width="1.4" opacity="0.57"/><path d="M52 321 L198 321 L224 295 L224 509 L198 535 L-44 535 L-70 509 L-240 509 L-266 535 L-266 680 L-240 706 L-240 644" stroke="#4fb0c6" stroke-width="3.5" fill="none" opacity="0.54" stroke-linecap="round" stroke-linejoin="round"/><circle cx="-240" cy="644" r="6.0" fill="none" stroke="#4fb0c6" stroke-width="1.4" opacity="0.48"/><path d="M935 321 L935 92 L909 66 L909 255 L935 281 L935 82 L961 56 L961 -158 L987 -184 L987 -19 L1013 7 L1013 -176" stroke="#4fb0c6" stroke-width="3.5" fill="none" opacity="0.38" stroke-linecap="round" stroke-linejoin="round"/><circle cx="1013" cy="-176" r="6.0" fill="none" stroke="#4fb0c6" stroke-width="1.4" opacity="0.35"/><path d="M777 404 L1012 404 L1038 378 L1038 305 L1064 279 L858 279 L832 305 L832 503" stroke="#4fb0c6" stroke-width="2" fill="none" opacity="0.43" stroke-linecap="round" stroke-linejoin="round"/><circle cx="832" cy="503" r="3.4" fill="none" stroke="#4fb0c6" stroke-width="1.4" opacity="0.38"/><path d="M606 662 L372 662 L346 636 L346 540 L372 514 L200 514" stroke="#4fb0c6" stroke-width="2" fill="none" opacity="0.57" stroke-linecap="round" stroke-linejoin="round"/><circle cx="200" cy="514" r="3.4" fill="none" stroke="#4fb0c6" stroke-width="1.4" opacity="0.51"/><path d="M830 151 L955 151 L981 125 L1170 125 L1196 99 L1196 195 L1222 221 L1222 17 L1248 -9 L1039 -9" stroke="#4fb0c6" stroke-width="2" fill="none" opacity="0.27" stroke-linecap="round" stroke-linejoin="round"/><circle cx="1039" cy="-9" r="3.4" fill="none" stroke="#4fb0c6" stroke-width="1.4" opacity="0.24"/><path d="M566 341 L566 193 L592 167 L383 167 L357 193 L357 -10" stroke="#4fb0c6" stroke-width="2" fill="none" opacity="0.36" stroke-linecap="round" stroke-linejoin="round"/><circle cx="357" cy="-10" r="3.4" fill="none" stroke="#4fb0c6" stroke-width="1.4" opacity="0.32"/><path d="M32 847 L32 1017 L58 1043 L292 1043 L318 1017 L318 1218 L344 1244 L123 1244" stroke="#4fb0c6" stroke-width="1.25" fill="none" opacity="0.44" stroke-linecap="round" stroke-linejoin="round"/><circle cx="123" cy="1244" r="2.1" fill="none" stroke="#4fb0c6" stroke-width="1.4" opacity="0.40"/><path d="M1050 896 L983 896 L957 922 L782 922 L756 896 L892 896 L918 922 L1136 922 L1162 948 L1162 704" stroke="#4fb0c6" stroke-width="1.25" fill="none" opacity="0.61" stroke-linecap="round" stroke-linejoin="round"/><circle cx="1162" cy="704" r="2.1" fill="none" stroke="#4fb0c6" stroke-width="1.4" opacity="0.55"/><path d="M286 576 L286 460 L260 434 L260 342 L286 316 L286 81 L312 55 L447 55 L473 81 L217 81 L191 107 L191 238" stroke="#4fb0c6" stroke-width="1.25" fill="none" opacity="0.48" stroke-linecap="round" stroke-linejoin="round"/><circle cx="191" cy="238" r="2.1" fill="none" stroke="#4fb0c6" stroke-width="1.4" opacity="0.44"/><path d="M701 603 L833 603 L859 577 L768 577 L742 551 L832 551 L858 525 L998 525" stroke="#4fb0c6" stroke-width="1.25" fill="none" opacity="0.27" stroke-linecap="round" stroke-linejoin="round"/><circle cx="998" cy="525" r="2.1" fill="none" stroke="#4fb0c6" stroke-width="1.4" opacity="0.25"/><path d="M761 270 L897 270 L923 296 L923 121 L949 95 L949 -36" stroke="#4fb0c6" stroke-width="1.25" fill="none" opacity="0.45" stroke-linecap="round" stroke-linejoin="round"/><circle cx="949" cy="-36" r="2.1" fill="none" stroke="#4fb0c6" stroke-width="1.4" opacity="0.41"/><path d="M538 592 L793 592 L819 566 L819 638 L793 664 L793 433" stroke="#4fb0c6" stroke-width="2" fill="none" opacity="0.48" stroke-linecap="round" stroke-linejoin="round"/><circle cx="793" cy="433" r="3.4" fill="none" stroke="#4fb0c6" stroke-width="1.4" opacity="0.43"/>
<g>
      <rect x="357" y="467" width="109" height="81" rx="6" fill="#08252e" opacity=".92"/>
      <rect x="357" y="467" width="109" height="81" rx="6" fill="none" stroke="#4fb0c6" stroke-width="1.5" opacity=".55"/>
      <circle cx="371" cy="481" r="4" fill="#4fb0c6" opacity=".7"/>
<rect x="364.0" y="460" width="6" height="7" rx="1.5" fill="#d4af37" opacity=".8"/>
<rect x="364.0" y="548" width="6" height="7" rx="1.5" fill="#d4af37" opacity=".8"/>
<rect x="381.8" y="460" width="6" height="7" rx="1.5" fill="#d4af37" opacity=".8"/>
<rect x="381.8" y="548" width="6" height="7" rx="1.5" fill="#d4af37" opacity=".8"/>
<rect x="399.6" y="460" width="6" height="7" rx="1.5" fill="#d4af37" opacity=".8"/>
<rect x="399.6" y="548" width="6" height="7" rx="1.5" fill="#d4af37" opacity=".8"/>
<rect x="417.4" y="460" width="6" height="7" rx="1.5" fill="#d4af37" opacity=".8"/>
<rect x="417.4" y="548" width="6" height="7" rx="1.5" fill="#d4af37" opacity=".8"/>
<rect x="435.2" y="460" width="6" height="7" rx="1.5" fill="#d4af37" opacity=".8"/>
<rect x="435.2" y="548" width="6" height="7" rx="1.5" fill="#d4af37" opacity=".8"/>
<rect x="453.0" y="460" width="6" height="7" rx="1.5" fill="#d4af37" opacity=".8"/>
<rect x="453.0" y="548" width="6" height="7" rx="1.5" fill="#d4af37" opacity=".8"/>
</g>
<g>
      <rect x="323" y="403" width="166" height="100" rx="6" fill="#08252e" opacity=".92"/>
      <rect x="323" y="403" width="166" height="100" rx="6" fill="none" stroke="#4fb0c6" stroke-width="1.5" opacity=".55"/>
      <circle cx="337" cy="417" r="4" fill="#4fb0c6" opacity=".7"/>
<rect x="330.0" y="396" width="6" height="7" rx="1.5" fill="#d4af37" opacity=".8"/>
<rect x="330.0" y="503" width="6" height="7" rx="1.5" fill="#d4af37" opacity=".8"/>
<rect x="348.3" y="396" width="6" height="7" rx="1.5" fill="#d4af37" opacity=".8"/>
<rect x="348.3" y="503" width="6" height="7" rx="1.5" fill="#d4af37" opacity=".8"/>
<rect x="366.5" y="396" width="6" height="7" rx="1.5" fill="#d4af37" opacity=".8"/>
<rect x="366.5" y="503" width="6" height="7" rx="1.5" fill="#d4af37" opacity=".8"/>
<rect x="384.8" y="396" width="6" height="7" rx="1.5" fill="#d4af37" opacity=".8"/>
<rect x="384.8" y="503" width="6" height="7" rx="1.5" fill="#d4af37" opacity=".8"/>
<rect x="403.0" y="396" width="6" height="7" rx="1.5" fill="#d4af37" opacity=".8"/>
<rect x="403.0" y="503" width="6" height="7" rx="1.5" fill="#d4af37" opacity=".8"/>
<rect x="421.3" y="396" width="6" height="7" rx="1.5" fill="#d4af37" opacity=".8"/>
<rect x="421.3" y="503" width="6" height="7" rx="1.5" fill="#d4af37" opacity=".8"/>
<rect x="439.5" y="396" width="6" height="7" rx="1.5" fill="#d4af37" opacity=".8"/>
<rect x="439.5" y="503" width="6" height="7" rx="1.5" fill="#d4af37" opacity=".8"/>
<rect x="457.8" y="396" width="6" height="7" rx="1.5" fill="#d4af37" opacity=".8"/>
<rect x="457.8" y="503" width="6" height="7" rx="1.5" fill="#d4af37" opacity=".8"/>
<rect x="476.0" y="396" width="6" height="7" rx="1.5" fill="#d4af37" opacity=".8"/>
<rect x="476.0" y="503" width="6" height="7" rx="1.5" fill="#d4af37" opacity=".8"/>
</g>
<g>
      <rect x="128" y="103" width="265" height="112" rx="6" fill="#08252e" opacity=".92"/>
      <rect x="128" y="103" width="265" height="112" rx="6" fill="none" stroke="#4fb0c6" stroke-width="1.5" opacity=".55"/>
      <circle cx="142" cy="117" r="4" fill="#4fb0c6" opacity=".7"/>
<rect x="135.0" y="96" width="6" height="7" rx="1.5" fill="#d4af37" opacity=".8"/>
<rect x="135.0" y="215" width="6" height="7" rx="1.5" fill="#d4af37" opacity=".8"/>
<rect x="153.8" y="96" width="6" height="7" rx="1.5" fill="#d4af37" opacity=".8"/>
<rect x="153.8" y="215" width="6" height="7" rx="1.5" fill="#d4af37" opacity=".8"/>
<rect x="172.7" y="96" width="6" height="7" rx="1.5" fill="#d4af37" opacity=".8"/>
<rect x="172.7" y="215" width="6" height="7" rx="1.5" fill="#d4af37" opacity=".8"/>
<rect x="191.5" y="96" width="6" height="7" rx="1.5" fill="#d4af37" opacity=".8"/>
<rect x="191.5" y="215" width="6" height="7" rx="1.5" fill="#d4af37" opacity=".8"/>
<rect x="210.4" y="96" width="6" height="7" rx="1.5" fill="#d4af37" opacity=".8"/>
<rect x="210.4" y="215" width="6" height="7" rx="1.5" fill="#d4af37" opacity=".8"/>
<rect x="229.2" y="96" width="6" height="7" rx="1.5" fill="#d4af37" opacity=".8"/>
<rect x="229.2" y="215" width="6" height="7" rx="1.5" fill="#d4af37" opacity=".8"/>
<rect x="248.1" y="96" width="6" height="7" rx="1.5" fill="#d4af37" opacity=".8"/>
<rect x="248.1" y="215" width="6" height="7" rx="1.5" fill="#d4af37" opacity=".8"/>
<rect x="266.9" y="96" width="6" height="7" rx="1.5" fill="#d4af37" opacity=".8"/>
<rect x="266.9" y="215" width="6" height="7" rx="1.5" fill="#d4af37" opacity=".8"/>
<rect x="285.8" y="96" width="6" height="7" rx="1.5" fill="#d4af37" opacity=".8"/>
<rect x="285.8" y="215" width="6" height="7" rx="1.5" fill="#d4af37" opacity=".8"/>
<rect x="304.6" y="96" width="6" height="7" rx="1.5" fill="#d4af37" opacity=".8"/>
<rect x="304.6" y="215" width="6" height="7" rx="1.5" fill="#d4af37" opacity=".8"/>
<rect x="323.5" y="96" width="6" height="7" rx="1.5" fill="#d4af37" opacity=".8"/>
<rect x="323.5" y="215" width="6" height="7" rx="1.5" fill="#d4af37" opacity=".8"/>
<rect x="342.3" y="96" width="6" height="7" rx="1.5" fill="#d4af37" opacity=".8"/>
<rect x="342.3" y="215" width="6" height="7" rx="1.5" fill="#d4af37" opacity=".8"/>
<rect x="361.2" y="96" width="6" height="7" rx="1.5" fill="#d4af37" opacity=".8"/>
<rect x="361.2" y="215" width="6" height="7" rx="1.5" fill="#d4af37" opacity=".8"/>
<rect x="380.0" y="96" width="6" height="7" rx="1.5" fill="#d4af37" opacity=".8"/>
<rect x="380.0" y="215" width="6" height="7" rx="1.5" fill="#d4af37" opacity=".8"/>
</g>
<g>
      <rect x="474" y="405" width="174" height="100" rx="6" fill="#08252e" opacity=".92"/>
      <rect x="474" y="405" width="174" height="100" rx="6" fill="none" stroke="#4fb0c6" stroke-width="1.5" opacity=".55"/>
      <circle cx="488" cy="419" r="4" fill="#4fb0c6" opacity=".7"/>
<rect x="481.0" y="398" width="6" height="7" rx="1.5" fill="#d4af37" opacity=".8"/>
<rect x="481.0" y="505" width="6" height="7" rx="1.5" fill="#d4af37" opacity=".8"/>
<rect x="500.3" y="398" width="6" height="7" rx="1.5" fill="#d4af37" opacity=".8"/>
<rect x="500.3" y="505" width="6" height="7" rx="1.5" fill="#d4af37" opacity=".8"/>
<rect x="519.5" y="398" width="6" height="7" rx="1.5" fill="#d4af37" opacity=".8"/>
<rect x="519.5" y="505" width="6" height="7" rx="1.5" fill="#d4af37" opacity=".8"/>
<rect x="538.8" y="398" width="6" height="7" rx="1.5" fill="#d4af37" opacity=".8"/>
<rect x="538.8" y="505" width="6" height="7" rx="1.5" fill="#d4af37" opacity=".8"/>
<rect x="558.0" y="398" width="6" height="7" rx="1.5" fill="#d4af37" opacity=".8"/>
<rect x="558.0" y="505" width="6" height="7" rx="1.5" fill="#d4af37" opacity=".8"/>
<rect x="577.3" y="398" width="6" height="7" rx="1.5" fill="#d4af37" opacity=".8"/>
<rect x="577.3" y="505" width="6" height="7" rx="1.5" fill="#d4af37" opacity=".8"/>
<rect x="596.5" y="398" width="6" height="7" rx="1.5" fill="#d4af37" opacity=".8"/>
<rect x="596.5" y="505" width="6" height="7" rx="1.5" fill="#d4af37" opacity=".8"/>
<rect x="615.8" y="398" width="6" height="7" rx="1.5" fill="#d4af37" opacity=".8"/>
<rect x="615.8" y="505" width="6" height="7" rx="1.5" fill="#d4af37" opacity=".8"/>
<rect x="635.0" y="398" width="6" height="7" rx="1.5" fill="#d4af37" opacity=".8"/>
<rect x="635.0" y="505" width="6" height="7" rx="1.5" fill="#d4af37" opacity=".8"/>
</g>
<rect x="1123" y="511" width="8" height="16" rx="2" fill="#d4af37" opacity="0.36"/>
<rect x="981" y="52" width="16" height="8" rx="2" fill="#d4af37" opacity="0.63"/>
<rect x="639" y="380" width="16" height="8" rx="2" fill="#d4af37" opacity="0.73"/>
<rect x="321" y="573" width="8" height="16" rx="2" fill="#d4af37" opacity="0.45"/>
<rect x="801" y="608" width="16" height="8" rx="2" fill="#d4af37" opacity="0.42"/>
<rect x="9" y="881" width="16" height="8" rx="2" fill="#d4af37" opacity="0.53"/>
<rect x="891" y="831" width="8" height="16" rx="2" fill="#d4af37" opacity="0.57"/>
<rect x="600" y="300" width="8" height="16" rx="2" fill="#d4af37" opacity="0.58"/>
<rect x="529" y="336" width="16" height="8" rx="2" fill="#d4af37" opacity="0.49"/>
<rect x="1143" y="532" width="8" height="16" rx="2" fill="#d4af37" opacity="0.71"/>
<rect x="1045" y="522" width="16" height="8" rx="2" fill="#d4af37" opacity="0.46"/>
<rect x="192" y="642" width="16" height="8" rx="2" fill="#d4af37" opacity="0.56"/>
<rect x="267" y="822" width="16" height="8" rx="2" fill="#d4af37" opacity="0.43"/>
<rect x="617" y="267" width="16" height="8" rx="2" fill="#d4af37" opacity="0.43"/>
<rect x="1090" y="871" width="8" height="16" rx="2" fill="#d4af37" opacity="0.69"/>
<rect x="36" y="224" width="8" height="16" rx="2" fill="#d4af37" opacity="0.38"/>
<rect x="1109" y="115" width="8" height="16" rx="2" fill="#d4af37" opacity="0.68"/>
<rect x="778" y="538" width="8" height="16" rx="2" fill="#d4af37" opacity="0.64"/>
<rect x="397" y="186" width="8" height="16" rx="2" fill="#d4af37" opacity="0.56"/>
<rect x="914" y="766" width="16" height="8" rx="2" fill="#d4af37" opacity="0.55"/>
<rect x="837" y="321" width="16" height="8" rx="2" fill="#d4af37" opacity="0.39"/>
<rect x="868" y="781" width="8" height="16" rx="2" fill="#d4af37" opacity="0.59"/>
<rect x="807" y="148" width="8" height="16" rx="2" fill="#d4af37" opacity="0.58"/>
<rect x="15" y="501" width="8" height="16" rx="2" fill="#d4af37" opacity="0.35"/>
<rect x="1137" y="610" width="8" height="16" rx="2" fill="#d4af37" opacity="0.49"/>
<rect x="910" y="592" width="8" height="16" rx="2" fill="#d4af37" opacity="0.57"/>
<rect x="922" y="310" width="8" height="16" rx="2" fill="#d4af37" opacity="0.46"/>
<rect x="45" y="670" width="8" height="16" rx="2" fill="#d4af37" opacity="0.71"/>
<rect x="244" y="628" width="8" height="16" rx="2" fill="#d4af37" opacity="0.53"/>
<rect x="57" y="165" width="8" height="16" rx="2" fill="#d4af37" opacity="0.55"/>
<rect x="85" y="168" width="16" height="8" rx="2" fill="#d4af37" opacity="0.61"/>
<rect x="434" y="61" width="16" height="8" rx="2" fill="#d4af37" opacity="0.67"/>
<rect x="493" y="92" width="16" height="8" rx="2" fill="#d4af37" opacity="0.38"/>
<circle cx="486" cy="653" r="273" fill="url(#glow866232353)" opacity=".5"/>
<circle cx="539" cy="306" r="199" fill="url(#glow866232353)" opacity=".5"/>
<circle cx="240" cy="572" r="238" fill="url(#glow866232353)" opacity=".5"/>
</svg>