<svg xmlns="http://www.w3.org/2000/svg" viewBox="0 0 1200 900" width="1200" height="900" role="img">
<defs>
<linearGradient id="bg3440439861" x1="0" y1="0" x2="1" y2="1">
<stop offset="0" stop-color="#0f303b"/><stop offset="1" stop-color="#1a5566"/>
</linearGradient>
<radialGradient id="glow3440439861">
<stop offset="0" stop-color="#93dcec" stop-opacity=".22"/><stop offset="1" stop-color="#93dcec" stop-opacity="0"/>
</radialGradient>
</defs>
<rect width="1200" height="900" fill="url(#bg3440439861)"/>
<g opacity=".16" stroke="#4fb0c6" stroke-width="1">
<line x1="0" y1="0" x2="0" y2="900"/>
<line x1="40" y1="0" x2="40" y2="900"/>
<line x1="80" y1="0" x2="80" y2="900"/>
<line x1="120" y1="0" x2="120" y2="900"/>
<line x1="160" y1="0" x2="160" y2="900"/>
<line x1="200" y1="0" x2="200" y2="900"/>
<line x1="240" y1="0" x2="240" y2="900"/>
<line x1="280" y1="0" x2="280" y2="900"/>
<line x1="320" y1="0" x2="320" y2="900"/>
<line x1="360" y1="0" x2="360" y2="900"/>
<line x1="400" y1="0" x2="400" y2="900"/>
<line x1="440" y1="0" x2="440" y2="900"/>
<line x1="480" y1="0" x2="480" y2="900"/>
<line x1="520" y1="0" x2="520" y2="900"/>
<line x1="560" y1="0" x2="560" y2="900"/>
<line x1="600" y1="0" x2="600" y2="900"/>
<line x1="640" y1="0" x2="640" y2="900"/>
<line x1="680" y1="0" x2="680" y2="900"/>
<line x1="720" y1="0" x2="720" y2="900"/>
<line x1="760" y1="0" x2="760" y2="900"/>
<line x1="800" y1="0" x2="800" y2="900"/>
<line x1="840" y1="0" x2="840" y2="900"/>
<line x1="880" y1="0" x2="880" y2="900"/>
<line x1="920" y1="0" x2="920" y2="900"/>
<line x1="960" y1="0" x2="960" y2="900"/>
<line x1="1000" y1="0" x2="1000" y2="900"/>
<line x1="1040" y1="0" x2="1040" y2="900"/>
<line x1="1080" y1="0" x2="1080" y2="900"/>
<line x1="1120" y1="0" x2="1120" y2="900"/>
<line x1="1160" y1="0" x2="1160" y2="900"/>
<line x1="1200" y1="0" x2="1200" y2="900"/>
<line x1="0" y1="0" x2="1200" y2="0"/>
<line x1="0" y1="40" x2="1200" y2="40"/>
<line x1="0" y1="80" x2="1200" y2="80"/>
<line x1="0" y1="120" x2="1200" y2="120"/>
<line x1="0" y1="160" x2="1200" y2="160"/>
<line x1="0" y1="200" x2="1200" y2="200"/>
<line x1="0" y1="240" x2="1200" y2="240"/>
<line x1="0" y1="280" x2="1200" y2="280"/>
<line x1="0" y1="320" x2="1200" y2="320"/>
<line x1="0" y1="360" x2="1200" y2="360"/>
<line x1="0" y1="400" x2="1200" y2="400"/>
<line x1="0" y1="440" x2="1200" y2="440"/>
<line x1="0" y1="480" x2="1200" y2="480"/>
<line x1="0" y1="520" x2="1200" y2="520"/>
<line x1="0" y1="560" x2="1200" y2="560"/>
<line x1="0" y1="600" x2="1200" y2="600"/>
<line x1="0" y1="640" x2="1200" y2="640"/>
<line x1="0" y1="680" x2="1200" y2="680"/>
<line x1="0" y1="720" x2="1200" y2="720"/>
<line x1="0" y1="760" x2="1200" y2="760"/>
<line x1="0" y1="800" x2="1200" y2="800"/>
<line x1="0" y1="840" x2="1200" y2="840"/>
<line x1="0" y1="880" x2="1200" y2="880"/>
</g>
<path d="M794 572 L651 572 L625 546 L625 358 L651 332 L877 332 L903 306 L1026 306 L1052 280 L1144 280" stroke="#4fb0c6" stroke-width="1.25" fill="none" opacity="0.48" stroke-linecap="round" stroke-linejoin="round"/><circle cx="1144" cy="280" r="2.1" fill="none" stroke="#4fb0c6" stroke-width="1.4" opacity="0.43"/><path d="M1187 480 L1339 480 L1365 454 L1498 454 L1524 480 L1524 712 L1498 738 L1498 629" stroke="#4fb0c6" stroke-width="2" fill="none" opacity="0.67" stroke-linecap="round" stroke-linejoin="round"/><circle cx="1498" cy="629" r="3.4" fill="none" stroke="#4fb0c6" stroke-width="1.4" opacity="0.60"/><path d="M1133 639 L1389 639 L1415 665 L1415 429 L1389 403 L1147 403 L1121 429 L882 429" stroke="#4fb0c6" stroke-width="2" fill="none" opacity="0.45" stroke-linecap="round" stroke-linejoin="round"/><circle cx="882" cy="429" r="3.4" fill="none" stroke="#4fb0c6" stroke-width="1.4" opacity="0.41"/><path d="M726 765 L726 641 L700 615 L700 495 L726 469 L619 469 L593 495 L721 495 L747 469 L747 685" stroke="#4fb0c6" stroke-width="1.25" fill="none" opacity="0.39" stroke-linecap="round" stroke-linejoin="round"/><circle cx="747" cy="685" r="2.1" fill="none" stroke="#4fb0c6" stroke-width="1.4" opacity="0.35"/><path d="M283 231 L118 231 L92 205 L92 74 L118 48 L118 -135 L92 -161 L232 -161" stroke="#4fb0c6" stroke-width="2" fill="none" opacity="0.33" stroke-linecap="round" stroke-linejoin="round"/><circle cx="232" cy="-161" r="3.4" fill="none" stroke="#4fb0c6" stroke-width="1.4" opacity="0.30"/><path d="M893 234 L752 234 L726 260 L640 260 L614 234 L756 234 L782 260 L915 260 L941 234 L1070 234 L1096 260 L1229 260 L1255 234 L1255 75" stroke="#4fb0c6" stroke-width="2" fill="none" opacity="0.70" stroke-linecap="round" stroke-linejoin="round"/><circle cx="1255" cy="75" r="3.4" fill="none" stroke="#4fb0c6" stroke-width="1.4" opacity="0.63"/><path d="M62 57 L-125 57 L-151 83 L-276 83 L-302 57 L-302 192 L-328 218 L-587 218" stroke="#4fb0c6" stroke-width="2" fill="none" opacity="0.35" stroke-linecap="round" stroke-linejoin="round"/><circle cx="-587" cy="218" r="3.4" fill="none" stroke="#4fb0c6" stroke-width="1.4" opacity="0.32"/><path d="M1029 426 L1263 426 L1289 452 L1195 452 L1169 426 L1169 531 L1195 557 L1394 557 L1420 583 L1168 583 L1142 557 L978 557 L952 583 L1131 583" stroke="#4fb0c6" stroke-width="2" fill="none" opacity="0.52" stroke-linecap="round" stroke-linejoin="round"/><circle cx="1131" cy="583" r="3.4" fill="none" stroke="#4fb0c6" stroke-width="1.4" opacity="0.47"/><path d="M1108 400 L1108 627 L1134 653 L1248 653 L1274 679 L1202 679 L1176 653 L1257 653 L1283 679 L1443 679" stroke="#4fb0c6" stroke-width="1.25" fill="none" opacity="0.35" stroke-linecap="round" stroke-linejoin="round"/><circle cx="1443" cy="679" r="2.1" fill="none" stroke="#4fb0c6" stroke-width="1.4" opacity="0.31"/><path d="M212 715 L98 715 L72 689 L72 881 L46 907 L-187 907 L-213 881 L-277 881" stroke="#4fb0c6" stroke-width="1.25" fill="none" opacity="0.67" stroke-linecap="round" stroke-linejoin="round"/><circle cx="-277" cy="881" r="2.1" fill="none" stroke="#4fb0c6" stroke-width="1.4" opacity="0.61"/><path d="M520 157 L520 385 L494 411 L494 312 L468 286 L468 392 L442 418 L442 510 L468 536 L613 536 L639 562 L810 562" stroke="#4fb0c6" stroke-width="1.25" fill="none" opacity="0.55" stroke-linecap="round" stroke-linejoin="round"/><circle cx="810" cy="562" r="2.1" fill="none" stroke="#4fb0c6" stroke-width="1.4" opacity="0.49"/><path d="M502 811 L502 672 L528 646 L294 646 L268 672 L85 672 L59 646 L59 481 L33 455 L191 455 L217 481 L130 481 L104 507 L104 656" stroke="#4fb0c6" stroke-width="3.5" fill="none" opacity="0.44" stroke-linecap="round" stroke-linejoin="round"/><circle cx="104" cy="656" r="6.0" fill="none" stroke="#4fb0c6" stroke-width="1.4" opacity="0.39"/><path d="M587 856 L479 856 L453 830 L256 830 L230 856 L230 624 L204 598 L204 688 L230 714 L391 714" stroke="#4fb0c6" stroke-width="1.25" fill="none" opacity="0.69" stroke-linecap="round" stroke-linejoin="round"/><circle cx="391" cy="714" r="2.1" fill="none" stroke="#4fb0c6" stroke-width="1.4" opacity="0.62"/><path d="M607 352 L807 352 L833 378 L654 378 L628 352 L436 352 L410 326 L496 326 L522 300 L522 76" stroke="#4fb0c6" stroke-width="1.25" fill="none" opacity="0.70" stroke-linecap="round" stroke-linejoin="round"/><circle cx="522" cy="76" r="2.1" fill="none" stroke="#4fb0c6" stroke-width="1.4" opacity="0.63"/><path d="M305 345 L66 345 L40 319 L205 319 L231 345 L231 418 L257 444 L257 570" stroke="#4fb0c6" stroke-width="3.5" fill="none" opacity="0.33" stroke-linecap="round" stroke-linejoin="round"/><circle cx="257" cy="570" r="6.0" fill="none" stroke="#4fb0c6" stroke-width="1.4" opacity="0.29"/><path d="M1001 780 L1187 780 L1213 754 L1444 754 L1470 728 L1590 728 L1616 754 L1419 754 L1393 728 L1393 624" stroke="#4fb0c6" stroke-width="3.5" fill="none" opacity="0.35" stroke-linecap="round" stroke-linejoin="round"/><circle cx="1393" cy="624" r="6.0" fill="none" stroke="#4fb0c6" stroke-width="1.4" opacity="0.32"/><path d="M520 298 L350 298 L324 324 L160 324 L134 350 L208 350" stroke="#4fb0c6" stroke-width="1.25" fill="none" opacity="0.46" stroke-linecap="round" stroke-linejoin="round"/><circle cx="208" cy="350" r="2.1" fill="none" stroke="#4fb0c6" stroke-width="1.4" opacity="0.41"/><path d="M362 397 L243 397 L217 371 L217 489 L243 515 L243 676 L269 702 L269 586 L243 560 L243 462" stroke="#4fb0c6" stroke-width="2" fill="none" opacity="0.34" stroke-linecap="round" stroke-linejoin="round"/><circle cx="243" cy="462" r="3.4" fill="none" stroke="#4fb0c6" stroke-width="1.4" opacity="0.30"/><path d="M360 432 L360 185 L334 159 L591 159 L617 133 L708 133" stroke="#4fb0c6" stroke-width="2" fill="none" opacity="0.32" stroke-linecap="round" stroke-linejoin="round"/><circle cx="708" cy="133" r="3.4" fill="none" stroke="#4fb0c6" stroke-width="1.4" opacity="0.29"/><path d="M923 729 L923 954 L897 980 L834 980 L808 954 L606 954 L580 928 L580 1135 L554 1161 L350 1161 L324 1187 L89 1187" stroke="#4fb0c6" stroke-width="2" fill="none" opacity="0.49" stroke-linecap="round" stroke-linejoin="round"/><circle cx="89" cy="1187" r="3.4" fill="none" stroke="#4fb0c6" stroke-width="1.4" opacity="0.44"/><path d="M139 596 L139 749 L113 775 L113 558 L139 532 L139 692 L113 718 L113 556" stroke="#4fb0c6" stroke-width="2" fill="none" opacity="0.43" stroke-linecap="round" stroke-linejoin="round"/><circle cx="113" cy="556" r="3.4" fill="none" stroke="#4fb0c6" stroke-width="1.4" opacity="0.39"/><path d="M830 745 L916 745 L942 719 L942 925 L916 951 L988 951 L1014 977 L1158 977 L1184 951 L1403 951" stroke="#4fb0c6" stroke-width="3.5" fill="none" opacity="0.26" stroke-linecap="round" stroke-linejoin="round"/><circle cx="1403" cy="951" r="6.0" fill="none" stroke="#4fb0c6" stroke-width="1.4" opacity="0.23"/><path d="M777 446 L574 446 L548 472 L548 589 L574 615 L755 615 L781 589 L952 589 L978 615 L1180 615" stroke="#4fb0c6" stroke-width="3.5" fill="none" opacity="0.28" stroke-linecap="round" stroke-linejoin="round"/><circle cx="1180" cy="615" r="6.0" fill="none" stroke="#4fb0c6" stroke-width="1.4" opacity="0.25"/><path d="M2 21 L167 21 L193 -5 L411 -5 L437 -31 L437 110 L463 136 L660 136 L686 162 L566 162 L540 188 L540 -18" stroke="#4fb0c6" stroke-width="2" fill="none" opacity="0.57" stroke-linecap="round" stroke-linejoin="round"/><circle cx="540" cy="-18" r="3.4" fill="none" stroke="#4fb0c6" stroke-width="1.4" opacity="0.51"/><path d="M539 224 L539 -8 L513 -34 L626 -34 L652 -8 L880 -8 L906 -34 L1162 -34 L1188 -60 L1384 -60" stroke="#4fb0c6" stroke-width="1.25" fill="none" opacity="0.61" stroke-linecap="round" stroke-linejoin="round"/><circle cx="1384" cy="-60" r="2.1" fill="none" stroke="#4fb0c6" stroke-width="1.4" opacity="0.55"/><path d="M268 693 L268 810 L242 836 L60 836 L34 810 L-142 810" stroke="#4fb0c6" stroke-width="2" fill="none" opacity="0.31" stroke-linecap="round" stroke-linejoin="round"/><circle cx="-142" cy="810" r="3.4" fill="none" stroke="#4fb0c6" stroke-width="1.4" opacity="0.28"/><path d="M830 234 L1029 234 L1055 208 L912 208 L886 182 L886 418 L912 444 L1010 444 L1036 418 L1184 418" stroke="#4fb0c6" stroke-width="2" fill="none" opacity="0.40" stroke-linecap="round" stroke-linejoin="round"/><circle cx="1184" cy="418" r="3.4" fill="none" stroke="#4fb0c6" stroke-width="1.4" opacity="0.36"/><path d="M298 407 L217 407 L191 433 L297 433 L323 407 L323 582" stroke="#4fb0c6" stroke-width="3.5" fill="none" opacity="0.39" stroke-linecap="round" stroke-linejoin="round"/><circle cx="323" cy="582" r="6.0" fill="none" stroke="#4fb0c6" stroke-width="1.4" opacity="0.35"/><path d="M920 46 L1146 46 L1172 20 L1172 134 L1146 160 L1402 160 L1428 186 L1428 343 L1454 369 L1454 269" stroke="#4fb0c6" stroke-width="2" fill="none" opacity="0.68" stroke-linecap="round" stroke-linejoin="round"/><circle cx="1454" cy="269" r="3.4" fill="none" stroke="#4fb0c6" stroke-width="1.4" opacity="0.61"/>
<g>
      <rect x="246" y="523" width="182" height="104" rx="6" fill="#08252e" opacity=".92"/>
      <rect x="246" y="523" width="182" height="104" rx="6" fill="none" stroke="#4fb0c6" stroke-width="1.5" opacity=".55"/>
      <circle cx="260" cy="537" r="4" fill="#4fb0c6" opacity=".7"/>
<rect x="253.0" y="516" width="6" height="7" rx="1.5" fill="#d4af37" opacity=".8"/>
<rect x="253.0" y="627" width="6" height="7" rx="1.5" fill="#d4af37" opacity=".8"/>
<rect x="271.0" y="516" width="6" height="7" rx="1.5" fill="#d4af37" opacity=".8"/>
<rect x="271.0" y="627" width="6" height="7" rx="1.5" fill="#d4af37" opacity=".8"/>
<rect x="289.0" y="516" width="6" height="7" rx="1.5" fill="#d4af37" opacity=".8"/>
<rect x="289.0" y="627" width="6" height="7" rx="1.5" fill="#d4af37" opacity=".8"/>
<rect x="307.0" y="516" width="6" height="7" rx="1.5" fill="#d4af37" opacity=".8"/>
<rect x="307.0" y="627" width="6" height="7" rx="1.5" fill="#d4af37" opacity=".8"/>
<rect x="325.0" y="516" width="6" height="7" rx="1.5" fill="#d4af37" opacity=".8"/>
<rect x="325.0" y="627" width="6" height="7" rx="1.5" fill="#d4af37" opacity=".8"/>
<rect x="343.0" y="516" width="6" height="7" rx="1.5" fill="#d4af37" opacity=".8"/>
<rect x="343.0" y="627" width="6" height="7" rx="1.5" fill="#d4af37" opacity=".8"/>
<rect x="361.0" y="516" width="6" height="7" rx="1.5" fill="#d4af37" opacity=".8"/>
<rect x="361.0" y="627" width="6" height="7" rx="1.5" fill="#d4af37" opacity=".8"/>
<rect x="379.0" y="516" width="6" height="7" rx="1.5" fill="#d4af37" opacity=".8"/>
<rect x="379.0" y="627" width="6" height="7" rx="1.5" fill="#d4af37" opacity=".8"/>
<rect x="397.0" y="516" width="6" height="7" rx="1.5" fill="#d4af37" opacity=".8"/>
<rect x="397.0" y="627" width="6" height="7" rx="1.5" fill="#d4af37" opacity=".8"/>
<rect x="415.0" y="516" width="6" height="7" rx="1.5" fill="#d4af37" opacity=".8"/>
<rect x="415.0" y="627" width="6" height="7" rx="1.5" fill="#d4af37" opacity=".8"/>
</g>
<g>
      <rect x="228" y="119" width="188" height="185" rx="6" fill="#08252e" opacity=".92"/>
      <rect x="228" y="119" width="188" height="185" rx="6" fill="none" stroke="#4fb0c6" stroke-width="1.5" opacity=".55"/>
      <circle cx="242" cy="133" r="4" fill="#4fb0c6" opacity=".7"/>
<rect x="235.0" y="112" width="6" height="7" rx="1.5" fill="#d4af37" opacity=".8"/>
<rect x="235.0" y="304" width="6" height="7" rx="1.5" fill="#d4af37" opacity=".8"/>
<rect x="253.7" y="112" width="6" height="7" rx="1.5" fill="#d4af37" opacity=".8"/>
<rect x="253.7" y="304" width="6" height="7" rx="1.5" fill="#d4af37" opacity=".8"/>
<rect x="272.3" y="112" width="6" height="7" rx="1.5" fill="#d4af37" opacity=".8"/>
<rect x="272.3" y="304" width="6" height="7" rx="1.5" fill="#d4af37" opacity=".8"/>
<rect x="291.0" y="112" width="6" height="7" rx="1.5" fill="#d4af37" opacity=".8"/>
<rect x="291.0" y="304" width="6" height="7" rx="1.5" fill="#d4af37" opacity=".8"/>
<rect x="309.7" y="112" width="6" height="7" rx="1.5" fill="#d4af37" opacity=".8"/>
<rect x="309.7" y="304" width="6" height="7" rx="1.5" fill="#d4af37" opacity=".8"/>
<rect x="328.3" y="112" width="6" height="7" rx="1.5" fill="#d4af37" opacity=".8"/>
<rect x="328.3" y="304" width="6" height="7" rx="1.5" fill="#d4af37" opacity=".8"/>
<rect x="347.0" y="112" width="6" height="7" rx="1.5" fill="#d4af37" opacity=".8"/>
<rect x="347.0" y="304" width="6" height="7" rx="1.5" fill="#d4af37" opacity=".8"/>
<rect x="365.7" y="112" width="6" height="7" rx="1.5" fill="#d4af37" opacity=".8"/>
<rect x="365.7" y="304" width="6" height="7" rx="1.5" fill="#d4af37" opacity=".8"/>
<rect x="384.3" y="112" width="6" height="7" rx="1.5" fill="#d4af37" opacity=".8"/>
<rect x="384.3" y="304" width="6" height="7" rx="1.5" fill="#d4af37" opacity=".8"/>
<rect x="403.0" y="112" width="6" height="7" rx="1.5" fill="#d4af37" opacity=".8"/>
<rect x="403.0" y="304" width="6" height="7" rx="1.5" fill="#d4af37" opacity=".8"/>
</g>
<g>
      <rect x="406" y="149" width="179" height="121" rx="6" fill="#08252e" opacity=".92"/>
      <rect x="406" y="149" width="179" height="121" rx="6" fill="none" stroke="#4fb0c6" stroke-width="1.5" opacity=".55"/>
      <circle cx="420" cy="163" r="4" fill="#4fb0c6" opacity=".7"/>
<rect x="413.0" y="142" width="6" height="7" rx="1.5" fill="#d4af37" opacity=".8"/>
<rect x="413.0" y="270" width="6" height="7" rx="1.5" fill="#d4af37" opacity=".8"/>
<rect x="432.9" y="142" width="6" height="7" rx="1.5" fill="#d4af37" opacity=".8"/>
<rect x="432.9" y="270" width="6" height="7" rx="1.5" fill="#d4af37" opacity=".8"/>
<rect x="452.8" y="142" width="6" height="7" rx="1.5" fill="#d4af37" opacity=".8"/>
<rect x="452.8" y="270" width="6" height="7" rx="1.5" fill="#d4af37" opacity=".8"/>
<rect x="472.6" y="142" width="6" height="7" rx="1.5" fill="#d4af37" opacity=".8"/>
<rect x="472.6" y="270" width="6" height="7" rx="1.5" fill="#d4af37" opacity=".8"/>
<rect x="492.5" y="142" width="6" height="7" rx="1.5" fill="#d4af37" opacity=".8"/>
<rect x="492.5" y="270" width="6" height="7" rx="1.5" fill="#d4af37" opacity=".8"/>
<rect x="512.4" y="142" width="6" height="7" rx="1.5" fill="#d4af37" opacity=".8"/>
<rect x="512.4" y="270" width="6" height="7" rx="1.5" fill="#d4af37" opacity=".8"/>
<rect x="532.3" y="142" width="6" height="7" rx="1.5" fill="#d4af37" opacity=".8"/>
<rect x="532.3" y="270" width="6" height="7" rx="1.5" fill="#d4af37" opacity=".8"/>
<rect x="552.1" y="142" width="6" height="7" rx="1.5" fill="#d4af37" opacity=".8"/>
<rect x="552.1" y="270" width="6" height="7" rx="1.5" fill="#d4af37" opacity=".8"/>
<rect x="572.0" y="142" width="6" height="7" rx="1.5" fill="#d4af37" opacity=".8"/>
<rect x="572.0" y="270" width="6" height="7" rx="1.5" fill="#d4af37" opacity=".8"/>
</g>
<g>
      <rect x="161" y="736" width="216" height="91" rx="6" fill="#08252e" opacity=".92"/>
      <rect x="161" y="736" width="216" height="91" rx="6" fill="none" stroke="#4fb0c6" stroke-width="1.5" opacity=".55"/>
      <circle cx="175" cy="750" r="4" fill="#4fb0c6" opacity=".7"/>
<rect x="168.0" y="729" width="6" height="7" rx="1.5" fill="#d4af37" opacity=".8"/>
<rect x="168.0" y="827" width="6" height="7" rx="1.5" fill="#d4af37" opacity=".8"/>
<rect x="185.8" y="729" width="6" height="7" rx="1.5" fill="#d4af37" opacity=".8"/>
<rect x="185.8" y="827" width="6" height="7" rx="1.5" fill="#d4af37" opacity=".8"/>
<rect x="203.6" y="729" width="6" height="7" rx="1.5" fill="#d4af37" opacity=".8"/>
<rect x="203.6" y="827" width="6" height="7" rx="1.5" fill="#d4af37" opacity=".8"/>
<rect x="221.5" y="729" width="6" height="7" rx="1.5" fill="#d4af37" opacity=".8"/>
<rect x="221.5" y="827" width="6" height="7" rx="1.5" fill="#d4af37" opacity=".8"/>
<rect x="239.3" y="729" width="6" height="7" rx="1.5" fill="#d4af37" opacity=".8"/>
<rect x="239.3" y="827" width="6" height="7" rx="1.5" fill="#d4af37" opacity=".8"/>
<rect x="257.1" y="729" width="6" height="7" rx="1.5" fill="#d4af37" opacity=".8"/>
<rect x="257.1" y="827" width="6" height="7" rx="1.5" fill="#d4af37" opacity=".8"/>
<rect x="274.9" y="729" width="6" height="7" rx="1.5" fill="#d4af37" opacity=".8"/>
<rect x="274.9" y="827" width="6" height="7" rx="1.5" fill="#d4af37" opacity=".8"/>
<rect x="292.7" y="729" width="6" height="7" rx="1.5" fill="#d4af37" opacity=".8"/>
<rect x="292.7" y="827" width="6" height="7" rx="1.5" fill="#d4af37" opacity=".8"/>
<rect x="310.5" y="729" width="6" height="7" rx="1.5" fill="#d4af37" opacity=".8"/>
<rect x="310.5" y="827" width="6" height="7" rx="1.5" fill="#d4af37" opacity=".8"/>
<rect x="328.4" y="729" width="6" height="7" rx="1.5" fill="#d4af37" opacity=".8"/>
<rect x="328.4" y="827" width="6" height="7" rx="1.5" fill="#d4af37" opacity=".8"/>
<rect x="346.2" y="729" width="6" height="7" rx="1.5" fill="#d4af37" opacity=".8"/>
<rect x="346.2" y="827" width="6" height="7" rx="1.5" fill="#d4af37" opacity=".8"/>
<rect x="364.0" y="729" width="6" height="7" rx="1.5" fill="#d4af37" opacity=".8"/>
<rect x="364.0" y="827" width="6" height="7" rx="1.5" fill="#d4af37" opacity=".8"/>
</g>
<g>
      <rect x="212" y="401" width="152" height="139" rx="6" fill="#08252e" opacity=".92"/>
      <rect x="212" y="401" width="152" height="139" rx="6" fill="none" stroke="#4fb0c6" stroke-width="1.5" opacity=".55"/>
      <circle cx="226" cy="415" r="4" fill="#4fb0c6" opacity=".7"/>
<rect x="219.0" y="394" width="6" height="7" rx="1.5" fill="#d4af37" opacity=".8"/>
<rect x="219.0" y="540" width="6" height="7" rx="1.5" fill="#d4af37" opacity=".8"/>
<rect x="237.9" y="394" width="6" height="7" rx="1.5" fill="#d4af37" opacity=".8"/>
<rect x="237.9" y="540" width="6" height="7" rx="1.5" fill="#d4af37" opacity=".8"/>
<rect x="256.7" y="394" width="6" height="7" rx="1.5" fill="#d4af37" opacity=".8"/>
<rect x="256.7" y="540" width="6" height="7" rx="1.5" fill="#d4af37" opacity=".8"/>
<rect x="275.6" y="394" width="6" height="7" rx="1.5" fill="#d4af37" opacity=".8"/>
<rect x="275.6" y="540" width="6" height="7" rx="1.5" fill="#d4af37" opacity=".8"/>
<rect x="294.4" y="394" width="6" height="7" rx="1.5" fill="#d4af37" opacity=".8"/>
<rect x="294.4" y="540" width="6" height="7" rx="1.5" fill="#d4af37" opacity=".8"/>
<rect x="313.3" y="394" width="6" height="7" rx="1.5" fill="#d4af37" opacity=".8"/>
<rect x="313.3" y="540" width="6" height="7" rx="1.5" fill="#d4af37" opacity=".8"/>
<rect x="332.1" y="394" width="6" height="7" rx="1.5" fill="#d4af37" opacity=".8"/>
<rect x="332.1" y="540" width="6" height="7" rx="1.5" fill="#d4af37" opacity=".8"/>
<rect x="351.0" y="394" width="6" height="7" rx="1.5" fill="#d4af37" opacity=".8"/>
<rect x="351.0" y="540" width="6" height="7" rx="1.5" fill="#d4af37" opacity=".8"/>
</g>
<rect x="786" y="817" width="16" height="8" rx="2" fill="#d4af37" opacity="0.55"/>
<rect x="107" y="186" width="16" height="8" rx="2" fill="#d4af37" opacity="0.35"/>
<rect x="632" y="622" width="16" height="8" rx="2" fill="#d4af37" opacity="0.43"/>
<rect x="421" y="859" width="8" height="16" rx="2" fill="#d4af37" opacity="0.55"/>
<rect x="263" y="390" width="16" height="8" rx="2" fill="#d4af37" opacity="0.52"/>
<rect x="688" y="855" width="16" height="8" rx="2" fill="#d4af37" opacity="0.51"/>
<rect x="980" y="159" width="8" height="16" rx="2" fill="#d4af37" opacity="0.43"/>
<rect x="513" y="540" width="8" height="16" rx="2" fill="#d4af37" opacity="0.36"/>
<rect x="748" y="541" width="8" height="16" rx="2" fill="#d4af37" opacity="0.54"/>
<rect x="511" y="444" width="16" height="8" rx="2" fill="#d4af37" opacity="0.48"/>
<rect x="271" y="504" width="8" height="16" rx="2" fill="#d4af37" opacity="0.70"/>
<rect x="453" y="354" width="8" height="16" rx="2" fill="#d4af37" opacity="0.71"/>
<rect x="279" y="608" width="8" height="16" rx="2" fill="#d4af37" opacity="0.48"/>
<rect x="1117" y="246" width="8" height="16" rx="2" fill="#d4af37" opacity="0.60"/>
<rect x="779" y="661" width="8" height="16" rx="2" fill="#d4af37" opacity="0.51"/>
<rect x="823" y="566" width="16" height="8" rx="2" fill="#d4af37" opacity="0.43"/>
<rect x="431" y="567" width="8" height="16" rx="2" fill="#d4af37" opacity="0.47"/>
<rect x="1035" y="784" width="8" height="16" rx="2" fill="#d4af37" opacity="0.70"/>
<rect x="982" y="501" width="16" height="8" rx="2" fill="#d4af37" opacity="0.43"/>
<rect x="280" y="723" width="16" height="8" rx="2" fill="#d4af37" opacity="0.42"/>
<rect x="920" y="444" width="16" height="8" rx="2" fill="#d4af37" opacity="0.41"/>
<rect x="326" y="270" width="16" height="8" rx="2" fill="#d4af37" opacity="0.59"/>
<rect x="687" y="49" width="8" height="16" rx="2" fill="#d4af37" opacity="0.58"/>
<rect x="508" y="771" width="16" height="8" rx="2" fill="#d4af37" opacity="0.66"/>
<rect x="44" y="147" width="16" height="8" rx="2" fill="#d4af37" opacity="0.74"/>
<rect x="160" y="117" width="8" height="16" rx="2" fill="#d4af37" opacity="0.54"/>
<rect x="90" y="846" width="16" height="8" rx="2" fill="#d4af37" opacity="0.68"/>
<rect x="355" y="133" width="8" height="16" rx="2" fill="#d4af37" opacity="0.46"/>
<rect x="416" y="80" width="8" height="16" rx="2" fill="#d4af37" opacity="0.64"/>
<rect x="314" y="626" width="8" height="16" rx="2" fill="#d4af37" opacity="0.47"/>
<circle cx="1166" cy="815" r="140" fill="url(#glow3440439861)" opacity=".5"/>
<circle cx="98" cy="595" r="104" fill="url(#glow3440439861)" opacity=".5"/>
<circle cx="699" cy="332" r="160" fill="url(#glow3440439861)" opacity=".5"/>
</svg>